<svg xmlns="http://www.w3.org/2000/svg" width="67" height="67" fill="none" viewBox="0 0 67 67"><g clip-path="url(#clip0_3403_3036)"><mask id="mask0_3403_3036" width="67" height="67" x="0" y="0" maskUnits="userSpaceOnUse" style="mask-type:luminance"><path fill="#fff" d="M66.72 0H.004v66.716H66.72z"/></mask><g mask="url(#mask0_3403_3036)"><path fill="#fc4c02" d="M54.012 66.716h-41.3c-7.017 0-12.708-5.69-12.708-12.708v-41.3C.004 5.692 5.694 0 12.713 0h41.299C61.03 0 66.72 5.69 66.72 12.709v41.295c0 7.018-5.69 12.709-12.708 12.709"/><path fill="#fff" d="M56.135 23.01c-.221-.511-.965-.412-1.075.133-.111.572-.409 1.587-.546 1.988-.08.22-.404.171-.408-.065-.02-2.968-.77-9.753-4.443-12.118a.78.78 0 0 0-1.076.244l-1.095 1.728a1.53 1.53 0 0 1-1.445.706c-1.43-.145-8.837.152-10.596 4.28-.06.14-.042.3.103.342.008 0 .02.008.027.008.969.236 1.415 1.137.389 1.201-.19.012-.95.153-1.13.187-.289.058-.709.23-.686.386-.248 1.853 0 2.59.279 3.211.541 1.19 2.994 3.204 3.864 3.856.95.713 1.876 2.456 1.876 4.157 0 3.89-3.108 6.877-7.228 6.877-6.941 0-10.172-5.618-10.183-5.683-.02-.091.03-.084.06-.084.348.016 1.915 1.58 4.65 2.205.76.175 7.274 1.69 8.505-1.938.02-.06-.022-.114-.045-.137-.618-.56-1.259-1.182-1.122-2.384.107-.953.607-1.266 1.06-1.586.1-.069.092-.248-.098-.435-1.06-1.053-4.71-4.009-5.172-4.79-.29-.489-.275-.939-.13-1.465.831-3.055-1.976-5.412-2.025-5.45-2.857-2.404-6.48-3.044-9.848-2.415q-.648.163-1.267.397a12.4 12.4 0 0 0-3.326 1.888c-2.742 2.185-4.645 5.644-4.706 10.157-.03 2.425.675 4.836 1.815 7.174.042.08.336.366.904-.084.199-.156.431-.404.698-.782.97-1.37 1.438-3.886 2.579-6.19.625-1.266 1.075-2.052 1.56-2.636.259-.312.526-.568.835-.808.32-.248.736-.042.55.32-.596 1.148-.829 1.999-1.233 3.75-.469 2.017-1.308 6.129-3.627 9.283-.378.438-.1.877.072 1.102.016.02.03.042.042.057.5.729 2.766 3.372 2.766 3.372 5.27 5.813 11.835 9.78 15.096 11.892 1.129.729 2.727.596 3.936-.163C41.1 51.043 57.39 40.356 57.23 28.414c-.027-2.017-.424-3.829-1.102-5.408m-17.13.69-.976 1.32a.607.607 0 0 1-.98-.008 4.1 4.1 0 0 1-.687-1.655.6.6 0 0 1 .546-.698 6.8 6.8 0 0 1 1.723.1c.435.08.641.587.374.941M22.777 26.61q.014-.034.027-.06c.053-.108.106-.21.16-.317.11-.214.221-.424.343-.63q.176-.31.382-.602.205-.293.438-.557a4.4 4.4 0 0 1 .511-.488c.32-.26.71-.48 1.121-.45.489.038.908.358 1.183.762.072.107.171.252.236.367q.046.068.088.137c.061.091.118.183.18.278.022.038.049.07.072.107.011.015.03.03.03.05 0 .023-.026.034-.045.034h-.077c-.06 0-.122-.004-.183 0-.118.008-.244.03-.332.114-.076.07-.095.18-.114.279-.103.503-.336 1.01-.774 1.278-.328.198-.736.232-1.114.164-.378-.069-.732-.233-1.072-.408a1 1 0 0 0-.24-.103c-.19-.05-.397.015-.568.122-.054.034-.107.072-.168.068-.042 0-.08-.038-.092-.076a.2.2 0 0 1 .004-.061m21.866-3.547c-1.354-.85-2.937-1.091-3.833-1.099-.85-.007-.515-.5-.278-.82.473-.64 1.38-1.289 2.876-.96 1.468.32 1.811 1.578 1.888 2.375.041.4.06.954-.656.5m1.811 28.267c-1.137 0-2.045.885-2.045 1.983s.908 2.01 2.045 2.01c1.136 0 2.033-.885 2.033-2.01s-.885-1.983-2.033-1.983m-.092 3.566c-.843-.053-1.445-.732-1.445-1.583 0-.85.652-1.583 1.537-1.583s1.567.763 1.521 1.686c-.041.843-.77 1.533-1.613 1.484"/><path fill="#fff" d="M46.457 52.23c.484 0 .805.24.805.687a.61.61 0 0 1-.397.595l.366.679c.03.057-.011.13-.076.13h-.27a.08.08 0 0 1-.077-.05l-.32-.633a.09.09 0 0 0-.077-.05h-.16a.086.086 0 0 0-.088.088v.557c0 .05-.038.087-.087.087h-.264a.09.09 0 0 1-.087-.087v-1.915c0-.05.038-.088.087-.088h.649zm-.294.462v.45c0 .05.038.088.088.088h.233c.198 0 .335-.1.335-.313 0-.214-.14-.313-.347-.313h-.221a.086.086 0 0 0-.088.088"/></g></g><defs><clipPath id="clip0_3403_3036"><path fill="#fff" d="M0 0h66.716v66.716H0z"/></clipPath></defs></svg>
