<svg xmlns="http://www.w3.org/2000/svg" viewBox="0 0 1505.9 621.4"><g id="Layer_1"><path d="M1255.7 423.2c-27.8.4-42.6-17.3-42.6-48.7s0-4.1.2-6.1h109.2c2.2-8.3 3.6-17.3 3.6-25.6 0-38.3-23.5-67.5-71.5-67.5s-92.7 48.4-92.7 99.2 31.8 78.3 84.8 78.3 46.6-7.9 62.8-20.2l-10.1-25.3c-12.6 9.7-28.1 15.5-43.7 15.9m-.4-120.6c16.2 0 24.5 10.5 24.5 33.6s-.1 4.5-.4 6.9h-62.3c6.8-24.3 21.2-40.4 38.1-40.4Zm-431.9-38.2c0-39.7-31-68.6-78-68.6h-90.9l-68.6 252.6h57.4l25.3-93.1h49.8c57 0 105-36.8 105-90.9m-127.1 61.3h-19.7l27.2-100.3h20.7c26.1 0 40.8 17.7 40.8 41.1 0 37.5-29.4 59.2-68.9 59.2Zm201.8-45.8 6.4-23.5c3.2-12.3 8.7-33.2 16.2-57.4 7.9-24.9 22.4-40.4 41.9-40.4s15.2 4.3 15.2 11.5c-.4 7.9-6.9 12.6-6.9 25.3s12.6 26.3 28.9 26.3 36.4-16.2 36.4-36.1c0-30.7-26.3-50.9-66.4-50.9-58.8 0-97.4 37.5-121.6 125.2L750 616.8h55.6l84.8-309.3h57.8l-38 140.7h55.6l45.5-168.5H898Z" style="fill:#0000c9"/><path d="M1179.6 279.9h-147.3l-7.2 27.8h71.3L985.8 448.4h155.9l7.2-27.8h-80.2zm291.6-2.9c-19.9 0-41.1 12.9-57.7 39.6l9.7-36.7h-55.6l-45.5 168.5h55.6l20.6-75.8c8.3-31 28.5-61.4 41.9-61.4s9 27.1 33.9 27.1 28.9-16.6 28.9-31.8-14.1-29.6-31.8-29.6ZM67.5 288.6c42.5-15.7 114.9-19.7 210.9-8.7l28.3-107c-109.4-15-224.3-3.9-251.1 34.6-11.8 17.3-15 53.5 11.8 81.1Zm421.8-17.3C446.8 287 374.4 291 278.4 280l-28.3 107c109.4 15 224.3 3.9 251.1-34.6 11.8-17.3 15-53.5-11.8-81.1Zm37.8 37.7 17.3-64.5c6.3-22.8 9.4-34.6 9.4-44.1 0-82.6-216.5-183.4-422.7-196l-29.1 107c212.5 15 429.8 118.1 424.2 197.6h.8ZM29.7 250.8l-17.3 64.5C6.1 338.1 3 349.9 3 359.4c0 82.6 216.5 183.4 422.7 196l29.1-107C242.2 433.4 25 330.3 30.5 250.8z" style="fill:#0000c9"/></g></svg>
