<svg xmlns="http://www.w3.org/2000/svg" width="668" height="325" viewBox="0 0 668 325"><path d="M618.249 22.765c.04-6.372.116-18.398-.495-19.819-4.59.599-10.13.377-15.631.156-4.595-.185-9.164-.368-13.128-.07-2.901.217-6.068.718-8.912.718-13.876.002-27.752.036-41.628.062l-91.862.014-398.796-.714c-.246 17.75-.189 35.885-.132 53.898.026 8.326.052 16.627.048 24.85l-.066 147.167.058 62.577.03 20.714c0 .743.012 1.657.025 2.65.036 2.818.08 6.271-.086 8.257 3.591.334 12.266.215 18.82.125 2.43-.034 4.569-.063 6.05-.064l51.911.008 167.482.057 219.024.056 69.611.01c3.166.003 6.674.043 10.326.084 9.529.107 20.042.225 28.033-.263a3381 3381 0 0 1-.649-102.55l.003-136.136-.049-58.37c-.005-.646.003-1.863.013-3.417"/><path fill="#fefefe" d="M219.837 140.311c-9.223-.086-18.813-.176-27.524.178l-1.362.099-.409.491c.049 5.545-.013 12.908-.079 20.73-.118 13.953-.248 29.366.22 38.519l282.674.114 1.221-.022c.741-1.211.503-35.423.387-52.097-.025-3.649-.045-6.458-.047-7.897l-184.913-.019-60.283-.025c-3.206-.009-6.521-.04-9.885-.071"/><path d="M209.862 142.12c-5.855.007-11.707.013-17.397-.146l.029 56.837c22.73-.406 45.155-.284 67.658-.161 10.95.059 21.918.119 32.949.118l179.933.008.009-6.007q.372-25.21-.042-50.419c-18.485-.44-37.963-.299-57.002-.162-6.627.048-13.201.096-19.661.118l-79.883-.079c-6.77.001-13.575.022-20.394.043-15.864.048-31.801.097-47.531-.1-4.588-.334-9.23-.201-13.824-.069-3.184.091-6.345.182-9.449.116-5.063-.108-10.231-.102-15.395-.097"/><path fill="#f51e24" d="M209.862 142.12c-5.855.007-11.707.013-17.397-.146l.029 56.837c22.73-.406 45.155-.284 67.658-.161 10.95.059 21.918.119 32.949.118l179.933.008.009-6.007-224.546.006c.328-12.619.225-25.168.122-37.75-.036-4.28-.071-8.564-.089-12.855-4.588-.334-9.23-.201-13.824-.069-3.184.091-6.345.182-9.449.116-5.063-.108-10.231-.102-15.395-.097"/><path fill="#fefefe" d="M208.962 148.284c-3.587.032-7.367.066-10.595-.065a1336 1336 0 0 1-.084 12.367c-.106 10.887-.221 22.803.251 32.015.733-.001 2.544.017 5.037.041 11.539.111 37.682.363 39.161-.412l.103-.144.029-43.85-29.395.02c-1.425 0-2.948.013-4.507.028"/><path fill="#f51e24" d="m240.727 150.122-13.32-.027a854 854 0 0 0 .012 13.388q-6.764-.007-13.529.065l.008 13.704.916-.005c4.253-.026 8.334-.05 12.607.172-.067 3.431.011 7.022.086 10.534q.034 1.494.061 2.96l13.164-.013-.003-13.619-13.262-.023c-.108-3.328-.066-6.897-.025-10.359.013-1.141.026-2.271.034-3.377l13.388.059c-.17-3.187-.156-6.797-.143-10.217.004-1.107.008-2.195.006-3.242m-26.881 37.101c-.03-3.339-.061-6.799.052-9.971l-13.696.019.038 13.497c4.673.168 8.951.075 13.632-.034-.004-1.143-.015-2.319-.026-3.511m.02-37.112-13.669-.026c.073 2.996.063 6.131.053 9.223-.004 1.434-.009 2.858-.005 4.255l13.645-.015c-.115-3.068-.082-6.489-.051-9.771.012-1.252.024-2.482.027-3.666"/><path fill="#fefefe" d="m340.633 152.525-.511.014-4.679.151-.048 2.041c-.209 8.818-.511 21.57.056 29.526l5.286.024.055-10.997q.851 0 1.732-.005c1.334-.006 2.695-.012 3.974.024 2.402 3.2 4.417 6.858 6.995 9.745 2.416 1.889 4.128 1.813 6.872 1.691q.517-.023 1.088-.044l.019-5.2-3.982-.001a323 323 0 0 1-4.819-6.855c1.715-1.023 3.248-1.928 4.456-3.562 2.173-2.939 2.373-8.606.459-11.681-3.265-5.245-11.447-5.021-16.953-4.871"/><path d="M341.868 158.152q-.57 0-1.079-.002-.005 1.362-.015 2.748c-.016 2.276-.033 4.58.013 6.807q.674.04 1.336.085c3.476.231 6.727.447 9.908-1.32 5.273-8.327-4.444-8.321-10.163-8.318"/><path fill="#fefefe" d="m265.848 152.528-.036.001-4.946.241c-.022 1.423-.048 2.9-.075 4.415-.157 8.805-.336 18.877.136 27.04q.837.008 1.684.019c1.293.016 2.595.032 3.87.023l.036-9.668 5.216.018q.55 0 1.077.002c2.297.012 4.297.022 6.59-.776 6.999-2.434 8.727-13.173 3.462-18.024-4.144-3.82-11.757-3.507-17.014-3.291"/><path d="M268 158.156c-.51-.003-1-.005-1.46-.011l-.049 11.179q.729.034 1.497.079c3.79.216 8.153.465 11.065-1.89 5.536-9.286-4.485-9.329-11.053-9.357"/><path fill="#fefefe" d="M397.458 152.586c-1.944.059-4.013.156-5.946.158-.022 1.621-.048 3.277-.075 4.957-.139 8.758-.288 18.16.069 26.559l5.314.011c.192-8.182.071-15.002-.252-23.175a585 585 0 0 0 15.49 23.304l5.658-.148a913 913 0 0 0 .026-31.522l-5.286.014c-.128 6.617-.302 16.579.236 23.127-4.763-7.446-10.776-15.979-15.234-23.285m48.762.165-6.238-.176c-4.109 9.918-9.295 21.598-12.803 31.577 1.881.063 3.861.161 5.733.168 1.01-2.427 2.025-4.962 3.095-7.353 3.665.184 6.941.201 10.604.189l3.651.029c1.013 2.484 1.957 4.821 3.131 7.242l5.528-.168c-1.026-3.754-2.686-7.184-4.108-10.776-2.703-6.83-6.05-13.887-8.593-20.732"/><path d="M448.093 171.576c-.78-2.146-3.792-11.188-5.39-12.21-1.527 3.933-3.378 8.397-4.735 12.342l4.892-.021z"/><path fill="#fefefe" d="m302.088 152.75-5.57-.009c-.006.643.013 1.658.034 2.84.056 2.987.131 7.045-.127 8.893-2.145 15.352 7.723 26.607 22.665 16.633 3.701-2.47 3.529-11.73 3.427-17.227l-.013-.708a354 354 0 0 0-.119-4.832c-.046-1.821-.061-3.767-.15-5.575l-5.499-.006c.003.989.061 2.291.127 3.79.459 10.336 1.335 30.045-12.493 21.084-2.575-1.669-2.4-12.555-2.286-19.69.036-2.229.066-4.091.004-5.193m75.352.008-5.3-.005c-.359 8.094-.634 23.441.019 31.488l5.298.029.023-1.102c.203-9.731.434-20.842-.04-30.41m86.834 1.442a5.14 5.14 0 0 0-6.279-3.609 5.144 5.144 0 1 0 2.723 9.92 5.144 5.144 0 0 0 3.556-6.311"/><path d="M463.276 154.836a4.059 4.059 0 0 0-7.809-.659 4.061 4.061 0 0 0 4.603 5.371 4.06 4.06 0 0 0 3.206-4.712"/><path fill="#fefefe" d="M461.334 157.44c.224-3.503.313-4.901-3.811-4.845-.03.192-.068.416-.111.662-.211 1.217-.511 2.947-.198 3.752.814.383 1.119.307 1.41.234.376-.094.729-.182 2.131.741l.563-.29z"/><path fill="#e4bc75" d="M282.807 225.875c-6.581-5.765-16.716-9.013-25.392-8.426-10.075.811-18.813 3.683-25.557 11.628a31.48 31.48 0 0 0-7.318 23.013 28.32 28.32 0 0 0 10.164 19.394c7.138 5.934 16.08 8.265 25.245 8.008 9.568-.566 17.991-3.66 24.477-10.945a32.47 32.47 0 0 0 8.011-23.224 27.92 27.92 0 0 0-9.63-19.448"/><path d="M260.391 220.645c-1.375-.188-3.088-.252-4.486-.261-29.855 2.757-27.12 56.35 5.669 56.104 3.32-.205 6.454-1.226 9.245-3.063 18.634-12.26 12.866-49.586-10.428-52.78"/><defs><linearGradient id="gradient_0" x1="296.696" x2="303.915" y1="54.365" y2="88.982" gradientUnits="userSpaceOnUse"><stop offset="0" stop-color="#977e4d"/><stop offset="1" stop-color="#d0b06d"/></linearGradient></defs><path fill="url(#gradient_0)" d="M377.146 59.808c-14.48-4.42-29.899-8.846-44.218-13.54l-71.787 21.79c-11.861 3.57-25.487 7.137-37.029 11.026-.276 3.219.139 5.358 1.218 8.395.407 1.142.736 1.26 1.063 2.58 3.941-.818 7.964-1.997 11.948-2.86l65.836-14.635c1.443-.32 3.492-.829 5.854-1.415 7.828-1.942 19.096-4.738 23.158-4.382 13.294 1.163 28.073 6.799 41.478 8.779-.055-.708.28-2.239.561-3.529.122-.556.233-1.067.3-1.448.22-1.254.272-2.58.325-3.907.095-2.415.191-4.838 1.293-6.854"/><path fill="#e4bc75" d="M208.417 231.133c-6.209-13.589-26.06-13.082-38.464-12.659-3.217.072-14.865.069-17.329 1.472l-.209.641c.423.72.712 1.035 1.565 1.226.715.16 1.525.215 2.355.272 2.062.14 4.242.289 5.375 2.072 2.447 3.852 2.173 43.133.592 48.319-.374 1.226-1.105 2.112-2.24 2.708-2.091 1.096-6.247.366-7.683 2.231l.209.664c2.552 1.195 28.169.994 31.4.142l.409-.373c-.972-1.576-7.487-2.252-9.796-3.385-2.288-4.144-2.005-9.445-1.754-14.153l.046-.873c.525-.005 1.311-.006 2.24-.006 3.359-.002 8.587-.004 10.147-.239 2.478 2.247 5.58 5.234 8.087 7.329 6.439 5.654 13.314 11.983 22.257 12.74.345.029.744.068 1.183.111 3.183.313 8.48.832 10.521-.766l.295-.796c-1.144-1.401-8.471-2.806-10.363-4.078-6.875-4.621-15.865-11.957-21.465-17.935 2.393-1.033 3.943-1.782 6.085-3.156 6.744-4.326 9.922-14.099 6.537-21.508"/><path d="M175.542 221.271q-.834.032-1.667.088c-.672.506-.883.594-.944 1.66-.166 2.92-.149 6.016-.133 9.004q.007 1.06.009 2.096l.055 22.269.318.011c6.758.232 14.547.499 20.064-4.111 4.59-4.728 5.474-8.045 5.434-14.425-.089-14.283-11.455-17.034-23.136-16.592"/><path fill="#e4bc75" d="M115.14 218.332q-3.547.042-7.095.141c-.52.008-1.11.013-1.751.019-4.724.042-12.26.11-15.6 1.474l-.375.507c1.689 2.634 7.693 1.172 9.641 4.214.988 1.542 1.225 43.624.359 47.187-.31 1.275-1.431 2.345-2.543 2.966-2.29 1.282-5.214 1.225-7.38 2.679l.047.442c2.723 1.21 27.086 1.151 30.703.518.346-.401.482-.496.533-.624.045-.112.024-.25.023-.642-1.038-1.139-3.834-1.102-5.411-1.207-6.699-1.838-6.231-8.361-5.813-14.184a99 99 0 0 0 .155-2.436c11.168.012 23.023-.31 31.602-8.507 6.681-6.385 7.068-18.412.357-24.88-7.006-6.753-18.261-7.732-27.452-7.667"/><path d="M112.739 221.292q-.873.039-1.744.096c-.554 3.902-.53 8.589-.51 12.779q.006 1.011.008 1.977.002 10.173.133 20.344.97.008 1.919.021c6.895.09 12.989.169 18.762-4.536 3.779-3.966 4.989-7.437 5.141-12.774.437-15.348-10.81-18.472-23.709-17.907"/><path fill="#e4bc75" d="M333.339 218.421a137 137 0 0 0-2.128.062c-.44.007-.985.012-1.609.018-4.641.042-13.655.124-16.296 1.524l-.306.424c1.653 2.303 10.287.651 10.464 7.097.261 9.475.223 18.989.184 28.484-.013 3.156-.025 6.311-.027 9.461q0 .443.004.895c.022 3.062.045 6.325-2.363 8.209-2.051 1.605-7.212 1.221-8.1 2.967.132.356.186.767.681.827 5.146.624 26.734.872 30.442.058l.476-.624c-.418-1.531-2.626-1.657-4.342-1.756-.33-.019-.642-.036-.92-.063-6.95-1.294-6.504-8.271-6.129-14.143.054-.857.108-1.69.136-2.478 14.512.01 37.053-2.061 36.824-21.66a16.7 16.7 0 0 0-5.135-11.934c-7.944-7.63-21.598-7.626-31.856-7.368"/><path d="M354.758 225.998c-4.982-4.95-14.636-4.975-21.249-4.661l-.02 35.165q1.006.006 1.99.018c6.949.078 13.064.146 18.828-4.697 6.21-6.605 7.212-19.11.451-25.825"/><path fill="#e4bc75" d="m471.561 219.286-9.993-.014c.159 3.094-5.841 16.808-9.597 25.391-1.105 2.526-2.016 4.607-2.518 5.843-6.342.212-10.15 1.331-14.725 6.215-.738.787-1.802 1.949-1.915 3.033q.067.068.125.131c.233.247.403.428.81.34 5.498-1.197 7.067-3.597 13.077-3.852-1.933 5.312-4.999 13.208-8.322 17.654-1.662.695-5.859 2.036-6.331 3.772 1.595 1.524 22.154 1.409 24.29.211-.444-2.341-8.549-2.222-9.869-4.112.135-4.302 3.965-12.095 5.81-16.227l4.727 1.917c7.612 2.713 13.444 4.756 20.871-.388 1.374 3.275 5.301 11.894 5.39 14.966-1.104 2.671-8.684 1.188-10.444 3.318.166.387.313.844.809.895 4.632.482 25.668 1.03 28.964-.297l.23-.467c-1.412-1.857-5.006-2.013-7.282-2.702-2.686-3.933-8.248-18.184-10.407-23.412a1217 1217 0 0 0-13.7-32.215"/><path d="M476.036 256.175c.13-2.212-9.978-26.599-11.557-27.653-2.896 7.348-7.023 16.009-9.495 23.175 4.306 1.358 8.752 3.192 12.977 4.394l.113.025c2.074.456 6.331 1.393 7.962.059"/><path fill="#e4bc75" d="M518.883 219.265c-4.174-.035-8.563-.071-12.429.11-.032.615-.076.803-.036.971.039.171.164.321.469.87.929.771 2.122 1.033 3.28 1.288 2.167.476 4.21.925 4.16 4.634-.036 2.694.036 5.604.109 8.55.111 4.444.223 8.97-.032 12.96-.132 2.073-.043 5.294.053 8.772.169 6.085.359 12.957-.576 15.836-1.899 2.21-5.748 2.689-7.472 4.412l.045.447c1.988.974 20.207 1.157 22.364-.048l.102-.875c-1.724-1.674-8.774-.559-9.092-5.321-.739-11.037-.54-22.556-.346-33.775.048-2.83.097-5.642.13-8.422l28.205 32.751c3.174 3.628 11.503 13.174 14.933 16.176q.267.05.539.106c1.04.211 2.11.428 3.092.12.537-1.171.423-17.318.332-30.112-.051-7.198-.094-13.334-.01-15.145.027-.581.013-1.594-.003-2.741-.029-2.094-.063-4.633.133-5.8.18-1.066 2.598-2.219 3.492-2.55.955-.354 4.686-1.438 5.107-2.252-1.553-1.229-20.761-1.494-22.553-.367l-.337.761c.512 1.319 1.886 1.418 3.41 1.528 2.427.176 5.236.379 5.553 5.583.349 5.729.219 11.563.088 17.389-.137 6.161-.275 12.312.155 18.321a1726 1726 0 0 0-38.397-44.151c-1.436-.001-2.938-.014-4.468-.026"/><defs><linearGradient id="gradient_1" x1="467.619" x2="375.036" y1="81.053" y2="74.256" gradientUnits="userSpaceOnUse"><stop offset="0" stop-color="#a98a53"/><stop offset="1" stop-color="#e6c07a"/></linearGradient></defs><path fill="url(#gradient_1)" d="m437.556 78.115-60.41-18.307c-1.102 2.017-1.198 4.44-1.293 6.854-.053 1.328-.105 2.653-.325 3.906-.067.382-.178.893-.3 1.45-.281 1.29-.616 2.82-.561 3.528 6.652 1.248 12.94 3.006 19.551 4.417l70.958 15.533c1.04-.767 2.559-6.533 3.098-8.145-8.379-1.8-22.176-6.626-30.718-9.236"/><path fill="#e4bc75" d="M406.615 219.848c-2.055-.916-25.896-.607-29.524-.461.653 4.724 8.25 1.336 8.625 6.244.249 3.262.211 6.606.174 9.939-.024 2.179-.049 4.353.007 6.496-.11 3.396-.045 7.152.022 11.009.129 7.388.265 15.147-.817 21.466-.305 1.776-7.455.948-8.243 3.109.252.443.287.746.865.784 9.668.632 19.516.535 29.329.438 6.2-.061 12.387-.122 18.506.001 1.733-3.986 3.76-7.696 5.845-11.505-.097-.585-.093-.765-.159-.915-.062-.142-.188-.256-.525-.664-3.093.051-6.201 5.88-8.443 7.144-5.574 3.141-20.042 2.646-25.894 1.229-.885-5.197-1.758-48.109.233-50.86 1.344-1.859 8.477-.544 10.185-2.822zM170.165 95.65l-65.215 19.968 1.303.665c4.96-1.477 12.48-2.956 17.603-4.038l25.959-5.558c25.284-5.54 51.249-11.669 76.578-16.628-.327-1.32-.656-1.438-1.063-2.58-1.079-3.037-1.494-5.176-1.218-8.394-17.541 5.775-36.215 11.163-53.947 16.566"/><path fill="#8f7546" d="M540.023 109.252c-23.786-7.46-47.988-14.324-71.749-21.9-.539 1.61-2.058 7.377-3.098 8.144 12.85 3.193 26.697 5.903 39.703 8.789l67.08 14.918c-7.152-3.249-23.863-7.419-31.936-9.951"/><path fill="#fefefe" d="M592.157 225.483a6.98 6.98 0 0 0-7.633-6.063 6.98 6.98 0 0 0-5.705 4.195 6.99 6.99 0 0 0 .896 7.027 6.98 6.98 0 0 0 6.576 2.626 6.98 6.98 0 0 0 5.866-7.785"/><path d="M586.195 220.769c-.715-.146-1.938-.166-2.696-.169-6.071 4.772-4.452 11.945 3.252 11.649 3.03-1.878 5.437-5.418 3.246-8.875a5.8 5.8 0 0 0-3.802-2.605"/><path fill="#fefefe" d="M583.287 222.502q-.3.01-.589.017c-.129 1.613-.41 6.135.248 7.492.777-.885.8-1.665 2.026-2.14 1.118.52 1.015.784 1.818 1.98l.645.255c.333-.717.086-1.406-.118-1.977-.116-.322-.218-.607-.194-.837.109-1.054 1.234-1.219 1.378-2.921-.916-2.006-3.232-1.932-5.214-1.869"/><path fill="#8f7546" d="M94.917 118.833c3.82-.657 7.603-1.509 11.336-2.55l-1.303-.665c-1.618.303-8.222 1.837-10.199 2.908l-.002-.005-.036.026a1.7 1.7 0 0 0-.426.305l.426-.305.038-.021z"/><path d="M79.47 2.532c-8.693-.096-30.415-.335-32.842.344l1.17.236 398.795.714 91.862-.014c13.876-.026 27.752-.06 41.628-.062 2.844 0 6.011-.501 8.912-.719 3.964-.297 8.533-.114 13.128.07 5.501.222 11.041.444 15.631-.155-2.16-.505-9.321-.516-12.825-.522-.408 0-.766 0-1.061-.002l-32.362.155-125.578-.004-308.515.006-54.97-.017c-.602-.004-1.632-.016-2.973-.03m-31.673.58-1.17-.236-.111 254.755.11 52.04c.001.276-.006.836-.015 1.577-.045 3.564-.144 11.325.29 11.943l.773.034c.167-1.986.122-5.439.086-8.257-.013-.993-.025-1.907-.026-2.65l-.03-20.714-.057-62.577.066-147.166c.004-8.224-.022-16.525-.048-24.851-.057-18.013-.114-36.149.132-53.898"/></svg>
